<svg width="20" height="17" viewBox="0 0 20 17" fill="none" xmlns="http://www.w3.org/2000/svg">
<path d="M19.1667 14.45C19.1667 14.9008 18.9911 15.3332 18.6785 15.6521C18.3659 15.9709 17.942 16.15 17.5 16.15H2.49999C2.05797 16.15 1.63404 15.9709 1.32148 15.6521C1.00892 15.3332 0.833328 14.9008 0.833328 14.45V5.09998C0.833328 4.64911 1.00892 4.21671 1.32148 3.89789C1.63404 3.57908 2.05797 3.39998 2.49999 3.39998H5.83333L7.49999 0.849976H12.5L14.1667 3.39998H17.5C17.942 3.39998 18.3659 3.57908 18.6785 3.89789C18.9911 4.21671 19.1667 4.64911 19.1667 5.09998V14.45Z" stroke="#1D2123" stroke-width="1.5" stroke-linecap="round" stroke-linejoin="round"/>
<path d="M10 12.75C11.841 12.75 13.3333 11.2277 13.3333 9.34995C13.3333 7.47218 11.841 5.94995 10 5.94995C8.15906 5.94995 6.66667 7.47218 6.66667 9.34995C6.66667 11.2277 8.15906 12.75 10 12.75Z" stroke="#1D2123" stroke-width="1.5" stroke-linecap="round" stroke-linejoin="round"/>
</svg>
