<svg width="22" height="22" viewBox="0 0 22 22" fill="none" xmlns="http://www.w3.org/2000/svg">
<path d="M11 20.375C16.1777 20.375 20.375 16.1777 20.375 11C20.375 5.82233 16.1777 1.625 11 1.625C5.82233 1.625 1.625 5.82233 1.625 11C1.625 16.1777 5.82233 20.375 11 20.375Z" stroke="#1D2123" stroke-width="1.5" stroke-linecap="round" stroke-linejoin="round"/>
<path d="M13.6042 7.87504C13.078 7.34466 12.429 6.99908 11.7352 6.87976C11.0414 6.76045 10.3322 6.87247 9.69266 7.20239C9.05317 7.5323 8.51055 8.0661 8.12993 8.73972C7.74932 9.41334 7.54686 10.1982 7.54686 11C7.54686 11.8019 7.74932 12.5867 8.12993 13.2604C8.51055 13.934 9.05317 14.4678 9.69266 14.7977C10.3322 15.1276 11.0414 15.2396 11.7352 15.1203C12.429 15.001 13.078 14.6554 13.6042 14.125" stroke="#1D2123" stroke-width="1.5" stroke-linecap="round" stroke-linejoin="round"/>
</svg>
