<svg width="20" height="20" viewBox="0 0 20 20" fill="none" xmlns="http://www.w3.org/2000/svg">
<path d="M13.477 5.6322H13.489" stroke="#1D2123" stroke-width="1.5" stroke-linecap="round" stroke-linejoin="round"/>
<path d="M15.7184 1.14941H4.51151C2.65469 1.14941 1.14944 2.65466 1.14944 4.51148V15.7184C1.14944 17.5752 2.65469 19.0804 4.51151 19.0804H15.7184C17.5752 19.0804 19.0805 17.5752 19.0805 15.7184V4.51148C19.0805 2.65466 17.5752 1.14941 15.7184 1.14941Z" stroke="#1D2123" stroke-width="1.5" stroke-linecap="round" stroke-linejoin="round"/>
<path d="M1.14944 13.477L5.6322 8.99425C6.1433 8.50244 6.72307 8.24353 7.31324 8.24353C7.9034 8.24353 8.48317 8.50244 8.99427 8.99425L14.5977 14.5977" stroke="#1D2123" stroke-width="1.5" stroke-linecap="round" stroke-linejoin="round"/>
<path d="M12.3563 12.3563L13.477 11.2356C13.9881 10.7438 14.5679 10.4849 15.158 10.4849C15.7482 10.4849 16.328 10.7438 16.8391 11.2356L19.0804 13.477" stroke="#1D2123" stroke-width="1.5" stroke-linecap="round" stroke-linejoin="round"/>
</svg>
