<svg width="22" height="16" viewBox="0 0 22 16" fill="none" xmlns="http://www.w3.org/2000/svg">
<path d="M11 11.1819C12.7259 11.1819 14.125 9.75732 14.125 8.00006C14.125 6.24279 12.7259 4.81824 11 4.81824C9.27411 4.81824 7.875 6.24279 7.875 8.00006C7.875 9.75732 9.27411 11.1819 11 11.1819Z" stroke="#1D2123" stroke-width="1.5" stroke-linecap="round" stroke-linejoin="round"/>
<path d="M18.2917 1.63635H3.70833C2.55774 1.63635 1.625 2.58605 1.625 3.75756V12.2424C1.625 13.4139 2.55774 14.3636 3.70833 14.3636H18.2917C19.4423 14.3636 20.375 13.4139 20.375 12.2424V3.75756C20.375 2.58605 19.4423 1.63635 18.2917 1.63635Z" stroke="#1D2123" stroke-width="1.5" stroke-linecap="round" stroke-linejoin="round"/>
<path d="M17.25 8H17.2604" stroke="#1D2123" stroke-width="1.5" stroke-linecap="round" stroke-linejoin="round"/>
<path d="M4.75 8H4.76042" stroke="#1D2123" stroke-width="1.5" stroke-linecap="round" stroke-linejoin="round"/>
</svg>
