<svg width="17" height="20" viewBox="0 0 17 20" fill="none" xmlns="http://www.w3.org/2000/svg">
<path d="M13.3571 6.66663C13.3571 5.34054 12.8454 4.06877 11.9345 3.13109C11.0236 2.19341 9.78819 1.66663 8.49999 1.66663C7.2118 1.66663 5.97637 2.19341 5.06548 3.13109C4.15458 4.06877 3.64285 5.34054 3.64285 6.66663C3.64285 12.5 1.21428 14.1666 1.21428 14.1666H15.7857C15.7857 14.1666 13.3571 12.5 13.3571 6.66663Z" stroke="#1D2123" stroke-width="1.5" stroke-linecap="round" stroke-linejoin="round"/>
<path d="M9.90048 17.5C9.75816 17.7526 9.55388 17.9622 9.3081 18.1079C9.06231 18.2537 8.78365 18.3304 8.50001 18.3304C8.21637 18.3304 7.93771 18.2537 7.69192 18.1079C7.44614 17.9622 7.24186 17.7526 7.09953 17.5" stroke="#1D2123" stroke-width="1.5" stroke-linecap="round" stroke-linejoin="round"/>
</svg>
